<?xml version="1.0" encoding="UTF-8"?>
<svg id="Capa_2" data-name="Capa 2" xmlns="http://www.w3.org/2000/svg" viewBox="0 0 367.16 252.78">
  <defs>
    <style>
      .cls-1 {
        fill: #fff;
      }
    </style>
  </defs>
  <g id="Capa_1-2" data-name="Capa 1">
    <path class="cls-1" d="M233.56,245.57c8.55-45.73,26.54-84.25,71.47-104.97-1.4,0-2.81,0-4.21,0-98.56,0-197.12,0-295.69,0q-5.09,0-5.1-5.21c0-6.75.07-13.5-.03-20.25-.03-2.22.72-3.15,2.98-2.98,1.71.13,3.43.03,5.15.03,97.7,0,195.4,0,293.11,0,1.16,0,2.32-.14,3.2-.19-7.05-4.19-14.45-7.84-21.02-12.62-17.74-12.92-29.57-30.52-38.15-50.46-5.65-13.14-9.28-26.84-11.36-41.62,10.81-2.43,21.59-4.86,32.46-7.3,1.18,7.83,1.95,15.51,3.54,23.01,7.89,37.02,27.16,65.31,62.84,80.74,9.86,4.26,20.19,6.79,30.83,8.11,1.08.13,2.15.34,3.56.57,0,8.86-.02,17.56.01,26.25.01,2.48-1.81,2.17-3.33,2.35-14.27,1.72-27.85,5.68-40.48,12.62-26.82,14.74-43.16,37.67-51.07,66.75-2.84,10.46-4.21,21.32-6.32,32.38-10.23-2.28-20.94-4.65-32.4-7.2Z"/>
  </g>
</svg>