<?xml version="1.0" encoding="UTF-8"?>
<svg id="Capa_2" data-name="Capa 2" xmlns="http://www.w3.org/2000/svg" viewBox="0 0 305.29 295.96">
  <defs>
    <style>
      .cls-1 {
        fill: #fff;
      }
    </style>
  </defs>
  <g id="Capa_1-2" data-name="Capa 1">
    <path class="cls-1" d="M245.23,264.47c-24.69-24.75-49.49-49.63-74.68-74.88v106.38h-34.54v-104.68c-26.12,26.19-52.02,52.16-77.88,78.1-9.16-9.12-17.72-17.64-26.38-26.26,25.38-25.39,50.76-50.77,76.14-76.15-.09-.19-.18-.37-.27-.56H0v-36.73h110.22c-24.97-24.92-49.7-49.59-74.37-74.21,8.52-8.51,16.54-16.53,24.49-24.47,24.87,24.85,49.82,49.78,74.78,74.72.22-.1.44-.2.65-.3V0h34.64v103.92c25.98-26.02,51.53-51.6,77.02-77.13,8.87,8.85,17.44,17.38,26.15,26.07-25.42,25.35-50.84,50.7-76.26,76.05.11.2.21.39.32.59h107.64v36.74h-108.56c24.7,24.67,49.12,49.06,73.42,73.33-8.49,8.48-16.52,16.5-24.92,24.89Z"/>
  </g>
</svg>