<?xml version="1.0" encoding="UTF-8"?>
<svg id="Capa_2" data-name="Capa 2" xmlns="http://www.w3.org/2000/svg" viewBox="0 0 113.1 168.03">
  <defs>
    <style>
      .cls-1 {
        fill: #548189;
      }

      .cls-2 {
        fill: #658e94;
      }

      .cls-3 {
        fill: #4e7d85;
      }

      .cls-4 {
        fill: #55828a;
      }

      .cls-5 {
        fill: #558289;
      }

      .cls-6 {
        fill: #70969c;
      }

      .cls-7 {
        fill: #4e7d84;
      }

      .cls-8 {
        fill: #5e888f;
      }

      .cls-9 {
        fill: #527f87;
      }

      .cls-10 {
        fill: #57838a;
      }

      .cls-11 {
        fill: #678f96;
      }

      .cls-12 {
        fill: #58848b;
      }

      .cls-13 {
        fill: #528088;
      }
    </style>
  </defs>
  <g id="Capa_1-2" data-name="Capa 1">
    <path class="cls-8" d="M48.01,3.21c1.42.57,1.54,1.13,0,1.5.58,6.25.98,12.97-.52,18.97-4.38,2.14-8.95,3.81-13.7,5.03l-1.82-.09c-3.11-4.92-9.37-8.39-1.36-1.02,3.22,3.33,4.03,6.2,2.44,8.62-.4,2.39-2.47,1.79-3.8.15-2.02-4.44-5.03-9.04-8.18-3.15,2.12,1.87,2.14,6.39,0,8.25-.21.65-.46.65-.75,0-2.99-3.8-3.75-8.33-1.45-12.84-1.69-2.29-2.72-4.77-3.1-7.42l-6.15,5.42c-.82.54-1.43-.11-2.02-.91.69-1.47,18.62-19.92,21.03-22.06.76-.67,2.01-1.47,2.92-1.94,3.95.33,8.5-.46,12.36-.02,1.98.22,2.83,1.21,4.1,1.52Z"/>
    <path class="cls-12" d="M20.32,41.46h.75c1.27-.09,1.77.91,1.5,3-.53,3.18-.03,5.68,1.5,7.5l1.47,1c.4,2.33-.07,9.01-.84,11.27-.84,2.49-2.93,7.31-5.87,5.73-3.36.38-4.99-3.63-5.24-6.75-2.65-3.4-5.14-7.17-6.73-11.25-1.75-3.01-4.15-6.53-5.38-9.98-3.43-9.63-.67-10.93,6.13-16.27,1.01,1.1,1.02,2.75.04,4.94-3.3,7.26,4.82,19.1,10.85,10.3l1.83.51Z"/>
    <path class="cls-13" d="M13.59,63.21c-.22.56-.47.55-.75,0-.91-1.68-2.89-3.95-4-6.11-.83-1.62-2-3.21-1.99-5.14,2.21,3.81,4.58,7.02,6.73,11.25Z"/>
    <path class="cls-3" d="M18.83,69.96c.65.21.64.46,0,.75-.19-.11-.57.11-.75,0-6-3.62-3-3.37-5.24-7.5h.75c1.25,2.46,1.11,6.07,5.24,6.75Z"/>
    <path class="cls-9" d="M89.91,21.21c8.59,7.06,15.38,15.83,22.45,24.38-4.07,13.31-5.11,28.23-8.77,41.45-1.98,7.16-3.86,7.64-7.69,12.91-1.28.57-2.69.21-4.22-1.11-13.31-3.55-27.24-4.98-41.8-4.28-4.9-.98-7.77-.94-8.6.13-1.16-.15-3.14.36-3.74-1.13-1.08-2.69,1.45-1.52,2.24-1.87,1.98-.71,3.52-.43,5.24.75.49.03,1.01.03,1.5,0,3.24-1.57.89-4.8-1.49-6.33,1.66-6.18,2.16-12.75,1.5-19.72.23-2.71,1.56-7.99,3.74-9.2.22-2.35-.03-5.07,0-7.5,1.99-6.27,8.85-7.2,14.71-6.04,6.31-4.09,6.38-10.08,5.57-16.92l1.42-1.04c3.73.96,4.3,6.82,3.06,10.26,4.93,5.24,5.42,9.43-2.4,11.37-4.48,3.62,8.84-1.29,9.2-3.35,6.12-3.86,9.06.51,3.13,4.85-1.6,2.7.24,9.96,1.45,12.8s7.57,12.28,9.54,9.28c3.4-5.18,4.03-15.16.94-20.66.28-3.46,1.14-6.89,2.6-10.3-3.04-3.3-4.96-6.83-5.76-10.58-3.15-.73-6.73-6.03-3.79-8.18Z"/>
    <path class="cls-5" d="M89.91,21.21c.02,1.89,1.19,4.87,2.59,6.03.83.69,2.61.78,3.06,1.42.27.38-.48,1.77-.06,2.99.69,1.97,5.12,6.3,5.41,8.04.67,4.03-3.74,6.09-2.6,10.21,1.28,4.65,2.76,4.87,1.99,11.35-.31,2.6-2.44,11.73-4.94,12.37-1.66.42-7.78-6.6-8.77-8.22-2.59-4.22-4.68-11.88-3.27-16.67.56-1.92,3.71-2.61,3.58-5.02-6.08.66-9.64,7.68-16.45,6.74-.72-5.91,3.82-4.5,5.78-6.18,3.17-2.71-2.3-6.18-2.67-7.84-.3-1.33.91-3.11.62-5.03-.18-1.2-1.85-4.12-2.24-5.69-2.07-.47-2.32-1.97-.75-4.5-.28-1.72-.31-4.48-.75-6-2.47-1.32-3.47-3.07-2.99-5.25.04-.23-.01-.51,0-.75-1.4-.8-1.48-4.69-.75-6,1.26-.06,2.72-.14,3.94.16,3.42.86,15.91,14.51,19.26,17.84Z"/>
    <path class="cls-10" d="M95.9,99.96c-2,2.75-4.21,5.51-6.31,8.3-2.55,3.37-6.89,11.77-9.79,14.19-3.6,3-10.8-3.61-13.1-6.34-4.74-5.62-6.74-12.95-13.08-17.64-4.39-3.25-7.24-3.1-12.34-3.75-1.33-2.03-.73-1.43,1.11-1.5,11.17-.45,27.76.28,38.91,1.51,4.74.52,11.18,1.8,14.6,5.24Z"/>
    <path class="cls-3" d="M46.51,50.46c.03,1.99,1.33,1.29,1.49,2.01.43,1.97-.94,6.66,2.25,4.74-.34,3.67-1.89,6.15-2.25,9.37-.52,4.67.65,10.41-.03,14.97-.19,1.29-1.53,2.17-1.54,3.78-.02,2.41,3.15,4.54,3.07,7.12-.99.05-2-.05-2.99,0,2.53-1.67.49-4.78-1.5-5.67-1.01-.45-3.18,3.06-5.54,1.25-.9-.69-.08-3.48-1.59-5.3s-6.98-3-8.58-5.65c2.61-.46,2.59-9.68-1.5-7.12l.06-2.12,15.08-15.04,2.08-.09c-1.76-1.42-.54-3.51,1.5-2.25Z"/>
    <path class="cls-13" d="M45.02,52.71c-4.45,5.13-12.12,12.39-17.21,17.25-.65.62-3.95,3.62-4.22,3.67-.86.15-3.61-2.28-4.76-2.92v-.75c6.29-4.38,4.97-11.42,5.24-18l-.97-.36c.51-2.53.34-4.91-.52-7.14-.35-.14-1.33.2-1.49,0-.19-.24.02-2.26-.01-3-.12-2.64-.12-5.61,0-8.25,1.72-1.42,3.58-.54,5.58,2.63,3.68,7.13,9.99,11.92,17.48,14.91l.89,1.96Z"/>
    <path class="cls-4" d="M48.76,13.71c0,1.5.03,3,0,4.5,2.23.87,1.56,5.81-.75,6-.02.25.02.5,0,.75.01,2.52-.48,4.77-1.5,6.75-.51,2.45-2.89,9.43-2.24,11.25.32.74.58,1.36.75,2.25v.75c-.56.66-2.48.86-2.99,0-3.07-5.04-6.06-10.22-8.95-15.55l.72-1.7c-.4-1.93.93-1.54,2.05-2.04,3.91-1.74,8.04-2.69,12.06-4.07.2-5.95.11-11.94.11-17.89,3.19,0,3.37,8.34.75,9Z"/>
    <path class="cls-12" d="M21.07,33.21c.06-1.25-.05-2.51,0-3.75,7.6-2.48,8.03,5.24,9.91,6.61.64.46,1.87,0,2.06.15l1.62-.58c2.41,3.49,4.86,6.93,7.36,10.33.9.16,2.18-.2,2.99,0,.34.08.52.56.75.75q-1.25,1.04,0,0c2.09,1.73.72,2.16.75,3.75-.85.47-1.04,1.73-1.5,2.25-5.79-2.15-12.04-5.8-16.02-10.56-2.54-3.04-3.72-7.59-7.92-8.94Z"/>
    <path class="cls-2" d="M20.32,41.46c-2.04,1.19-3.93,4.73-6.31,4.52-1.05-.09-6.46-3.88-7.18-4.88-2.39-3.33-.88-11.91.77-15.39.2-.16,1.16-.18,1.87-.71,2.04-1.52,3.38-4.03,5.97-5.32,2.45-1.22,1.67,2.43,2.46,4.33.61,1.46,2.25,3.01,2.44,4.39.31,2.31-1.55,3.27-1.58,5.17-.03,2.21,2.55,5.04,1.57,7.89Z"/>
    <path class="cls-6" d="M33.79,28.71c1.97,3.25,4.95,8.38,6.64,11.71.86,1.7,1.5,3.61,1.59,5.54-5.09-.92-5.13-6.77-8.98-9.75-.92-7.06-6.71-10.4-11.22-14.99,6.14-.35,9.06,2.69,11.97,7.49Z"/>
    <path class="cls-11" d="M24.06,51.96h-3c.39-2.61-1.24-6.25,1.5-7.5,4.41,1.78,1.62,4.42,1.5,7.5Z"/>
    <path class="cls-6" d="M45.76,46.71c.64,2.42-2.42,1.88-3.74.37l3.74-.37Z"/>
    <path class="cls-7" d="M18.08,70.71c.21-.54.46-.53.75,0,.92-1.17,2.38-.76,4.38,1.23,1.59-1.84,3.12-2.5,4.6-1.98,5.33-4.02,5.31,3.85,4.02,7.55,5.54,1.84,8.47,5.01,8.81,9.5,5.27-3.1,6.54-.34,7.85,4.86l-1.98.59c-.41.55-.95.39-1.5,0-1.91-1.16-3.11-1.31-5.24-.75-.45,1.07.04,2.07,1.5,3,12.04-3.64,19.36,8.31,24.62,17.81,2.61,3.58,10.68,13.15,14.55,7,3.85-6.19,8.02-12.23,12.5-18.1l2.95-1.46-.6-1.7c5.67-5.71,7.66-12.44,8.94-20.54,1.56-10.82,3.82-21.44,6.77-31.86l-13.78-15.72c-2.74-2.72-5.18-5.69-7.31-8.94l-1.9.2c-5.35-6.08-11.2-11.59-17.53-16.53-2.09.11-3.35-.45-3.76-1.67-.68,1.72-.62,4.66.75,6,.67.19.65.44,0,.75.39,2.58,1.11,3.43,2.99,5.25,2.42.48,2.75,4.71.75,6,.29,2.94-1.43,3.72-2.47.76-6.74,7.66-10.89,1.05-9.39-6.67-1.36.13-2.15-.4-2.36-1.59.58,0,1.46.13,1.5.5.63,6.42.72,20.79,0,27.11l-1.5.88c-.54,2.12-2.95,2.22-7.24.29,3.85,2.41,2.74,4.06.5,7.21,2.27,1.22,2.42,6.48,0,7.5-3.42,5.21-4.44-4.13-3.74-6.75-1.32-.47-1.57-1.72-.75-3.75-.6-.07-.95-.12-.75-.75-.65-.21-.64-.46,0-.75-.34-.66-.59-1.41-.75-2.25-3.14-.28-.28-10.7,2.24-11.25.99-2.01,1.49-4.26,1.5-6.75-.65-.25-.65-.5,0-.75l1.06-1.68c2.98,1.27,2.87-.17-.32-4.32-.56-1.44-.55-3.06,0-4.5,2.33-.6,3.04-2.46,2.12-5.59l.79-2.1c-1.96-.42-3.18-1.35-3.65-2.81-.27.56-.75,1.28-1.22,1.16-4.99-1.27-8.41-1.71-13.87-1.09l-1.38-1.57c1.64-.85,2.01-1.28,4.12-1.5,6.12-.65,32.19.14,36.98,2.68,11.49,10.1,22.4,20.58,32.25,32.18,3.05,3.59,8.81,6.65,8.15,11.9-2.87,10.5-3.84,21.42-6.29,32-4.15,17.88-13.46,28.08-24.32,42.37-8.27,10.88-27.74,37.64-37.4,45.01-3.84,2.93-4.55,1.54-8.49-.52-3.2-3.53-28.13-18.54-28.84-20.63-.79-2.33,1.45-5.62,2.5-7.76,6.07-12.28,14.17-26.13,21.05-38.15,2.07-3.61,9.21-10.45,5.58-15.52-2.81-3.92-15.71-7.79-18.76-13.07Z"/>
    <path class="cls-3" d="M50.25,49.71c.02-1.31.9-2.93.65-3.99-.42-1.73-4-2.2-3.63-3.88.64-2.94,7.52,1.74,9.72.36V13.71h3.75c.83.81-2.66,14.21,5.53,8.92,2.17-1.4,2.81-8.41,4.2.44l.74-1.87c.26,1.59.59,2.49.75,4.5.35,4.47,1.09,10.86-1.5,14.63-.57.83-4.27,4.51-5.03,4.74-2.34.7-4.22-.82-6.38-.48-2.36.37-7.24,3.07-8.8,5.12Z"/>
    <path class="cls-1" d="M27.05,156.97l-18.37-11.99c-1.36-2.1,4.49-8.59,4.98-11.21,1.14-.79,15.81,10.7,16.82,12.72.52,1.04-3.48,8.32-3.43,10.48Z"/>
    <path class="cls-3" d="M48.01,3.21c2.69.65,5.27,2.03,8.23,1.5.6,2.67-2.42.78-3.42,2.19-1.84,2.61,2.64,8.28-4.06,6.8,0-2.83.63-6.77-.75-9v-1.5Z"/>
    <path class="cls-3" d="M48.76,18.21c3.87-.98,5.2,8.31,4.49,9-.08.08-2.15.08-2.24,0-.57-.45,1.67-4.11-3-3.01.13-1.82.7-3.6.75-6Z"/>
    <path class="cls-3" d="M70.46,15.21l-4.49-1.51c.03-1.51,1.2-2.17,1.5-3.74,1.34,1.53,2.42,3.27,2.99,5.25Z"/>
    <path class="cls-3" d="M66.72,3.21c.28,2.07.85,3.85.75,6-3.22,2-1.04-3.74-2.24-6,.49-.03,1,.02,1.49,0Z"/>
    <path class="cls-3" d="M46.51,31.71c.45-2.16.34-4.92,1.5-6.75-.24,2.65,1.74,4.51-1.5,6.75Z"/>
    <path class="cls-3" d="M45.02,92.46c-1.8-.11-3.47-.48-5.24-.75,2.47-1.11,2.26-2.52,5.24.75Z"/>
    <path class="cls-3" d="M45.02,45.21c-1.25-.39-1.97-1.42-.75-2.25.05.15,2.65,1.07.75,2.25Z"/>
  </g>
</svg>