<?xml version="1.0" encoding="UTF-8"?>
<svg id="Capa_2" data-name="Capa 2" xmlns="http://www.w3.org/2000/svg" viewBox="0 0 273.67 274.24">
  <defs>
    <style>
      .cls-1 {
        fill: #fff;
      }
    </style>
  </defs>
  <g id="Capa_1-2" data-name="Capa 1">
    <path class="cls-1" d="M104.24,140.73c29.62,44.22,59.23,88.43,89.4,133.47-9.62,0-18.37.11-27.1-.13-1.24-.03-2.79-1.56-3.61-2.79-28.67-42.72-57.28-85.49-85.89-128.24-.46-.68-.95-1.33-2.23-1.65,17.98,44.07,35.95,88.13,54.09,132.6h-25.06c-18.07-44.26-36.15-88.56-54.23-132.86-.25.08-.5.16-.75.23,8.84,44.14,17.67,88.27,26.56,132.66h-24.53c-8.81-43.98-17.63-88-26.45-132.03-.31.04-.62.07-.92.11v131.74H0V.52h23.34v131.54c.38.05.75.1,1.13.15C33.27,88.32,42.06,44.43,50.89.37h24.52c-8.89,44.4-17.73,88.57-26.57,132.75.21.08.41.16.62.23.76-1.75,1.56-3.49,2.28-5.27,16.63-40.81,33.32-81.59,49.77-122.47,1.68-4.17,3.56-5.93,8.21-5.56,6.12.49,12.31.12,19.26.12-18.23,44.7-36.26,88.89-54.29,133.09.26.13.52.27.78.4,8.11-12.11,16.22-24.22,24.33-36.34,21.03-31.41,42.03-62.83,63.16-94.17.94-1.39,3.02-2.79,4.61-2.84,8.32-.28,16.65-.13,26.08-.13-30.1,44.94-59.75,89.22-89.41,133.51.13.17.26.34.39.5.87-.74,1.79-1.42,2.6-2.22C150.73,89,194.19,45.99,237.78,3.1c1.66-1.63,4.53-2.72,6.89-2.81,9.25-.32,18.52-.13,29-.13-46.67,46.1-92.48,91.35-138.73,137.03,46.07,45.5,91.96,90.83,138.72,137.01-11.28,0-21.37.09-31.46-.11-1.39-.03-3-1.29-4.1-2.38-28.48-28.07-56.91-56.18-85.35-84.3-15.64-15.46-31.26-30.94-46.89-46.4-.32-.32-.78-.51-1.17-.76l-.45.46Z"/>
  </g>
</svg>